<?xml version="1.0" encoding="UTF-8"?>
<!-- Generated by Pixelmator Pro 4.0 -->
<svg width="24" height="24" viewBox="0 0 24 24" xmlns="http://www.w3.org/2000/svg">
    <linearGradient id="linearGradient1" x1="11.999784" y1="-0.000156" x2="11.999784" y2="23.999904" gradientUnits="userSpaceOnUse">
        <stop offset="1e-05" stop-color="#b1a7ff" stop-opacity="1"/>
        <stop offset="0.5" stop-color="#7a9dff" stop-opacity="1"/>
        <stop offset="1" stop-color="#3941ff" stop-opacity="1"/>
    </linearGradient>
    <path id="Path" fill="url(#linearGradient1)" stroke="none" d="M 8.085108 0.458511 C 9.048526 0.062128 10.097364 -0.081083 11.131782 0.042511 C 12.465118 0.195843 13.653121 0.762512 14.695791 1.742514 C 14.709124 1.755848 14.72779 1.765181 14.745124 1.770514 C 14.763955 1.775146 14.783628 1.775146 14.802458 1.770514 C 16.157993 1.420458 17.592882 1.550003 18.863802 2.137184 L 18.926468 2.166515 L 19.081137 2.242516 C 20.411499 2.916796 21.449179 4.054541 21.998476 5.441191 C 22.277143 6.121193 22.41581 6.829193 22.418476 7.567862 C 22.438519 8.117216 22.37833 8.666553 22.239811 9.198534 C 22.225927 9.253122 22.241032 9.311017 22.279808 9.351868 C 23.071814 10.161203 23.597147 11.125205 23.857147 12.245208 C 24.242479 14.145213 23.847813 15.85855 22.674479 17.383888 L 22.493145 17.605221 C 21.716038 18.494761 20.696058 19.137981 19.55847 19.455891 C 19.508398 19.470568 19.468302 19.50819 19.450468 19.557224 C 19.195801 20.291895 18.939802 20.92123 18.4638 21.549232 C 17.263798 23.131903 15.501126 24.010571 13.515788 23.999905 C 11.933117 23.991903 10.530447 23.413235 9.306443 22.263899 C 9.26894 22.228809 9.215469 22.216589 9.166444 22.231899 C 8.64911 22.398567 8.126441 22.422565 7.561106 22.415901 C 6.660661 22.40867 5.773724 22.196171 4.967766 21.794567 C 4.123537 21.376217 3.388511 20.766741 2.821095 20.014561 C 2.618428 19.745228 2.417094 19.491892 2.269093 19.191891 C 2.067047 18.780224 1.901954 18.351427 1.775758 17.910557 C 1.50936 16.907387 1.502936 15.852887 1.757092 14.846548 C 1.76545 14.822602 1.768187 14.797053 1.765092 14.771881 C 1.760527 14.747143 1.747862 14.724627 1.729092 14.707881 C 1.113182 14.084464 0.642432 13.332812 0.350422 12.506542 C 0.156222 11.997587 0.043286 11.461254 0.015754 10.917204 C -0.032685 10.200644 0.030741 9.480911 0.203755 8.783866 C 0.653089 7.301195 1.513091 6.137194 2.781094 5.29319 C 3.063761 5.10519 3.331762 4.958523 3.582429 4.853189 C 3.869097 4.734524 4.155765 4.634521 4.443765 4.550522 C 4.485569 4.537554 4.518105 4.504519 4.530432 4.462523 C 4.749117 3.677242 5.125179 2.944624 5.635768 2.309183 C 6.279415 1.491859 7.123051 0.854425 8.085108 0.458511 Z M 12.727785 14.545215 C 12.277901 14.570453 11.926023 14.942623 11.926023 15.393216 C 11.926023 15.843809 12.277901 16.215981 12.727785 16.241219 L 17.575796 16.241219 C 17.890108 16.25885 18.188389 16.101189 18.350857 15.831549 C 18.513323 15.561909 18.513323 15.224524 18.350857 14.954884 C 18.188389 14.685242 17.890108 14.527581 17.575796 14.545215 L 12.727785 14.545215 Z M 7.282439 8.306531 C 7.042571 7.915852 6.535948 7.78603 6.137755 8.013209 C 5.739562 8.240388 5.593514 8.742574 5.807768 9.147867 L 7.503773 12.113208 L 5.815769 14.961214 C 5.576813 15.364383 5.709934 15.884929 6.113102 16.123884 C 6.516272 16.362841 7.036816 16.229719 7.275772 15.82655 L 9.214444 12.553208 C 9.370052 12.290686 9.372598 11.964796 9.221111 11.699873 L 7.282439 8.306531 Z"/>
</svg>
